<svg width="499" height="67" viewBox="0 0 499 67" fill="none" xmlns="http://www.w3.org/2000/svg">
<path d="M28.32 44.848L0.48 33.712V29.488L28.32 18.352V22.32L2.144 32.624V30.576L28.32 40.88V44.848ZM40.1085 54V9.2H44.8445V49.904H69.9325V54H40.1085ZM90.224 54.32C87.3653 54.32 84.8693 53.7867 82.736 52.72C80.6027 51.6533 78.9387 50.0533 77.744 47.92C76.592 45.7867 76.016 43.12 76.016 39.92V20.4H80.56V39.408C80.56 42.992 81.4347 45.7013 83.184 47.536C84.976 49.328 87.472 50.224 90.672 50.224C93.0187 50.224 95.0453 49.7547 96.752 48.816C98.5013 47.8347 99.824 46.4267 100.72 44.592C101.659 42.7573 102.128 40.56 102.128 38V20.4H106.672V54H102.32V44.784L103.024 46.448C101.957 48.9227 100.293 50.864 98.032 52.272C95.8133 53.6373 93.2107 54.32 90.224 54.32ZM133.288 54.32C129.96 54.32 126.973 53.5947 124.328 52.144C121.725 50.6507 119.677 48.624 118.184 46.064C116.691 43.4613 115.944 40.496 115.944 37.168C115.944 33.7973 116.691 30.832 118.184 28.272C119.677 25.712 121.725 23.7067 124.328 22.256C126.973 20.8053 129.96 20.08 133.288 20.08C136.147 20.08 138.728 20.6347 141.032 21.744C143.336 22.8533 145.149 24.5173 146.472 26.736L143.08 29.04C141.928 27.3333 140.499 26.0747 138.792 25.264C137.085 24.4533 135.229 24.048 133.224 24.048C130.835 24.048 128.68 24.6027 126.76 25.712C124.84 26.7787 123.325 28.2933 122.216 30.256C121.107 32.2187 120.552 34.5227 120.552 37.168C120.552 39.8133 121.107 42.1173 122.216 44.08C123.325 46.0427 124.84 47.5787 126.76 48.688C128.68 49.7547 130.835 50.288 133.224 50.288C135.229 50.288 137.085 49.8827 138.792 49.072C140.499 48.2613 141.928 47.024 143.08 45.36L146.472 47.664C145.149 49.84 143.336 51.504 141.032 52.656C138.728 53.7653 136.147 54.32 133.288 54.32ZM176.455 54V46.576L176.263 45.36V32.944C176.263 30.0853 175.452 27.888 173.831 26.352C172.252 24.816 169.884 24.048 166.727 24.048C164.551 24.048 162.481 24.4107 160.519 25.136C158.556 25.8613 156.892 26.8213 155.527 28.016L153.479 24.624C155.185 23.1733 157.233 22.064 159.623 21.296C162.012 20.4853 164.529 20.08 167.175 20.08C171.527 20.08 174.876 21.168 177.223 23.344C179.612 25.4773 180.807 28.7413 180.807 33.136V54H176.455ZM164.871 54.32C162.353 54.32 160.156 53.9147 158.279 53.104C156.444 52.2507 155.036 51.0987 154.055 49.648C153.073 48.1547 152.583 46.448 152.583 44.528C152.583 42.7787 152.988 41.2 153.799 39.792C154.652 38.3413 156.017 37.1893 157.895 36.336C159.815 35.44 162.375 34.992 165.575 34.992H177.159V38.384H165.703C162.46 38.384 160.199 38.96 158.919 40.112C157.681 41.264 157.062 42.6933 157.062 44.4C157.062 46.32 157.809 47.856 159.303 49.008C160.796 50.16 162.887 50.736 165.575 50.736C168.135 50.736 170.332 50.16 172.167 49.008C174.044 47.8133 175.409 46.1067 176.263 43.888L177.287 47.024C176.433 49.2427 174.94 51.0133 172.807 52.336C170.716 53.6587 168.071 54.32 164.871 54.32ZM202.173 54.32C199.399 54.32 196.775 53.936 194.301 53.168C191.826 52.3573 189.885 51.3547 188.477 50.16L190.525 46.576C191.89 47.6 193.639 48.496 195.773 49.264C197.906 49.9893 200.146 50.352 202.493 50.352C205.693 50.352 207.997 49.8613 209.405 48.88C210.813 47.856 211.517 46.512 211.517 44.848C211.517 43.6107 211.111 42.6507 210.301 41.968C209.533 41.2427 208.509 40.7093 207.229 40.368C205.949 39.984 204.519 39.664 202.941 39.408C201.362 39.152 199.783 38.8533 198.205 38.512C196.669 38.1707 195.261 37.68 193.981 37.04C192.701 36.3573 191.655 35.44 190.845 34.288C190.077 33.136 189.693 31.6 189.693 29.68C189.693 27.8453 190.205 26.2027 191.229 24.752C192.253 23.3013 193.746 22.1707 195.709 21.36C197.714 20.5067 200.146 20.08 203.005 20.08C205.181 20.08 207.357 20.3787 209.533 20.976C211.709 21.5307 213.501 22.2773 214.909 23.216L212.925 26.864C211.431 25.84 209.831 25.1147 208.125 24.688C206.418 24.2187 204.711 23.984 203.005 23.984C199.975 23.984 197.735 24.5173 196.285 25.584C194.877 26.608 194.173 27.9307 194.173 29.552C194.173 30.832 194.557 31.8347 195.325 32.56C196.135 33.2853 197.181 33.8613 198.461 34.288C199.783 34.672 201.213 34.992 202.749 35.248C204.327 35.504 205.885 35.824 207.421 36.208C208.999 36.5493 210.429 37.04 211.709 37.68C213.031 38.2773 214.077 39.152 214.845 40.304C215.655 41.4133 216.061 42.8853 216.061 44.72C216.061 46.6827 215.506 48.3893 214.397 49.84C213.33 51.248 211.751 52.3573 209.661 53.168C207.613 53.936 205.117 54.32 202.173 54.32ZM234.941 54L255.421 9.2H260.093L280.573 54H275.581L256.765 11.952H258.685L239.869 54H234.941ZM243.005 42.032L244.413 38.192H270.461L271.869 42.032H243.005ZM301.047 66.736C297.975 66.736 295.031 66.288 292.215 65.392C289.399 64.496 287.116 63.216 285.367 61.552L287.671 58.096C289.25 59.504 291.191 60.6133 293.495 61.424C295.842 62.2773 298.316 62.704 300.919 62.704C305.186 62.704 308.322 61.7013 310.327 59.696C312.332 57.7333 313.335 54.6613 313.335 50.48V42.096L313.975 36.336L313.527 30.576V20.4H317.879V49.904C317.879 55.7067 316.45 59.952 313.591 62.64C310.775 65.3707 306.594 66.736 301.047 66.736ZM300.215 52.72C297.015 52.72 294.135 52.0373 291.575 50.672C289.015 49.264 286.988 47.3227 285.495 44.848C284.044 42.3733 283.319 39.536 283.319 36.336C283.319 33.136 284.044 30.32 285.495 27.888C286.988 25.4133 289.015 23.4933 291.575 22.128C294.135 20.7627 297.015 20.08 300.215 20.08C303.202 20.08 305.89 20.6987 308.279 21.936C310.668 23.1733 312.567 25.008 313.975 27.44C315.383 29.872 316.087 32.8373 316.087 36.336C316.087 39.8347 315.383 42.8 313.975 45.232C312.567 47.664 310.668 49.52 308.279 50.8C305.89 52.08 303.202 52.72 300.215 52.72ZM300.663 48.688C303.138 48.688 305.335 48.176 307.255 47.152C309.175 46.0853 310.69 44.6347 311.799 42.8C312.908 40.9227 313.463 38.768 313.463 36.336C313.463 33.904 312.908 31.7707 311.799 29.936C310.69 28.1013 309.175 26.672 307.255 25.648C305.335 24.5813 303.138 24.048 300.663 24.048C298.231 24.048 296.034 24.5813 294.071 25.648C292.151 26.672 290.636 28.1013 289.527 29.936C288.46 31.7707 287.927 33.904 287.927 36.336C287.927 38.768 288.46 40.9227 289.527 42.8C290.636 44.6347 292.151 46.0853 294.071 47.152C296.034 48.176 298.231 48.688 300.663 48.688ZM344.412 54.32C341.553 54.32 339.057 53.7867 336.924 52.72C334.79 51.6533 333.126 50.0533 331.932 47.92C330.78 45.7867 330.204 43.12 330.204 39.92V20.4H334.748V39.408C334.748 42.992 335.622 45.7013 337.372 47.536C339.164 49.328 341.66 50.224 344.86 50.224C347.206 50.224 349.233 49.7547 350.94 48.816C352.689 47.8347 354.012 46.4267 354.908 44.592C355.846 42.7573 356.316 40.56 356.316 38V20.4H360.86V54H356.507V44.784L357.212 46.448C356.145 48.9227 354.481 50.864 352.22 52.272C350.001 53.6373 347.398 54.32 344.412 54.32ZM373.524 54V20.4H378.068V54H373.524ZM375.828 12.976C374.889 12.976 374.1 12.656 373.46 12.016C372.82 11.376 372.5 10.608 372.5 9.712C372.5 8.816 372.82 8.06933 373.46 7.472C374.1 6.832 374.889 6.512 375.828 6.512C376.766 6.512 377.556 6.81066 378.196 7.408C378.836 8.00533 379.156 8.752 379.156 9.648C379.156 10.5867 378.836 11.376 378.196 12.016C377.598 12.656 376.809 12.976 375.828 12.976ZM411.767 54V46.576L411.575 45.36V32.944C411.575 30.0853 410.764 27.888 409.143 26.352C407.564 24.816 405.196 24.048 402.039 24.048C399.863 24.048 397.794 24.4107 395.831 25.136C393.868 25.8613 392.204 26.8213 390.839 28.016L388.791 24.624C390.498 23.1733 392.546 22.064 394.935 21.296C397.324 20.4853 399.842 20.08 402.487 20.08C406.839 20.08 410.188 21.168 412.535 23.344C414.924 25.4773 416.119 28.7413 416.119 33.136V54H411.767ZM400.183 54.32C397.666 54.32 395.468 53.9147 393.591 53.104C391.756 52.2507 390.348 51.0987 389.367 49.648C388.386 48.1547 387.895 46.448 387.895 44.528C387.895 42.7787 388.3 41.2 389.111 39.792C389.964 38.3413 391.33 37.1893 393.207 36.336C395.127 35.44 397.687 34.992 400.887 34.992H412.471V38.384H401.015C397.772 38.384 395.511 38.96 394.231 40.112C392.994 41.264 392.375 42.6933 392.375 44.4C392.375 46.32 393.122 47.856 394.615 49.008C396.108 50.16 398.199 50.736 400.887 50.736C403.447 50.736 405.644 50.16 407.479 49.008C409.356 47.8133 410.722 46.1067 411.575 43.888L412.599 47.024C411.746 49.2427 410.252 51.0133 408.119 52.336C406.028 53.6587 403.383 54.32 400.183 54.32ZM428.461 54V20.4H432.813V29.552L432.365 27.952C433.304 25.392 434.882 23.4507 437.101 22.128C439.32 20.7627 442.072 20.08 445.357 20.08V24.496C445.186 24.496 445.016 24.496 444.845 24.496C444.674 24.4533 444.504 24.432 444.333 24.432C440.792 24.432 438.018 25.52 436.013 27.696C434.008 29.8293 433.005 32.88 433.005 36.848V54H428.461ZM443.65 60.4L464.77 0.111996H468.93L447.81 60.4H443.65ZM471.168 44.848V40.88L497.344 30.576V32.624L471.168 22.32V18.352L499.007 29.488V33.712L471.168 44.848Z" fill="#00701F"/>
</svg>
